<svg width="522" height="630" viewBox="0 0 522 630" fill="none" xmlns="http://www.w3.org/2000/svg">
<g filter="url(#filter0_ii_2_48)">
<path d="M518.075 44.1381C518.075 44.1381 520.868 10.5965 473.066 2.56038C408.256 -8.33485 353.792 18.6397 334.293 25.5511C314.707 32.4935 280.88 43.7833 230.595 33.4467C207.821 28.7652 159.296 -0.0542871 119.502 0.973553C64.798 2.3865 0.518346 52.0361 0.699646 95.4602C0.973956 161.16 0.00335693 563.135 0.00335693 563.135C3.17251 531.991 45.6393 520.827 85.2694 519.541C147.037 520.935 453.04 518.353 481.551 519.541C510.061 520.728 520.937 511.491 520.844 496.794C520.604 471.378 520.451 452.788 520.451 452.788C521.876 331.847 518.966 175.456 518.075 44.1381Z" fill="#64748B"/>
</g>
<g filter="url(#filter1_ii_2_48)">
<path d="M0.00333223 563.135C4.81369 529.171 38.795 519.848 85.2693 519.54C206.536 518.738 445.071 519.54 481.551 519.54C512.034 519.54 520.957 508.831 520.844 496.794C520.844 496.794 521.495 582.616 520.604 599.776C519.713 616.944 502.498 630.623 474.004 629.806C445.509 628.989 138.536 629.723 76.8026 628.764C36.9315 628.145 -0.405842 613.434 0.00333223 563.135Z" fill="#0F172A"/>
</g>
<g filter="url(#filter2_i_2_48)">
<rect x="82.1725" y="148.491" width="266" height="38" rx="19" fill="#334155"/>
</g>
<rect x="81.1725" y="147.491" width="268" height="40" rx="20" stroke="#0F172A" stroke-width="2"/>
<g filter="url(#filter3_i_2_48)">
<rect x="82.1725" y="406.491" width="266" height="38" rx="19" fill="#334155"/>
</g>
<rect x="81.1725" y="405.491" width="268" height="40" rx="20" stroke="#0F172A" stroke-width="2"/>
<g filter="url(#filter4_i_2_48)">
<rect x="82.1725" y="234.491" width="312" height="38" rx="19" fill="#334155"/>
</g>
<rect x="81.1725" y="233.491" width="314" height="40" rx="20" stroke="#0F172A" stroke-width="2"/>
<g filter="url(#filter5_i_2_48)">
<rect x="82.1725" y="320.491" width="187" height="38" rx="19" fill="#334155"/>
</g>
<rect x="81.1725" y="319.491" width="189" height="40" rx="20" stroke="#0F172A" stroke-width="2"/>
<defs>
<filter id="filter0_ii_2_48" x="-8.69664" y="0" width="539.541" height="568.135" filterUnits="userSpaceOnUse" color-interpolation-filters="sRGB">
<feFlood flood-opacity="0" result="BackgroundImageFix"/>
<feBlend mode="normal" in="SourceGraphic" in2="BackgroundImageFix" result="shape"/>
<feColorMatrix in="SourceAlpha" type="matrix" values="0 0 0 0 0 0 0 0 0 0 0 0 0 0 0 0 0 0 127 0" result="hardAlpha"/>
<feOffset dx="-10"/>
<feGaussianBlur stdDeviation="4.35"/>
<feComposite in2="hardAlpha" operator="arithmetic" k2="-1" k3="1"/>
<feColorMatrix type="matrix" values="0 0 0 0 0.00784314 0 0 0 0 0.0235294 0 0 0 0 0.0901961 0 0 0 0.4 0"/>
<feBlend mode="normal" in2="shape" result="effect1_innerShadow_2_48"/>
<feColorMatrix in="SourceAlpha" type="matrix" values="0 0 0 0 0 0 0 0 0 0 0 0 0 0 0 0 0 0 127 0" result="hardAlpha"/>
<feOffset dx="20" dy="5"/>
<feGaussianBlur stdDeviation="5"/>
<feComposite in2="hardAlpha" operator="arithmetic" k2="-1" k3="1"/>
<feColorMatrix type="matrix" values="0 0 0 0 0.580392 0 0 0 0 0.639216 0 0 0 0 0.721569 0 0 0 0.4 0"/>
<feBlend mode="normal" in2="effect1_innerShadow_2_48" result="effect2_innerShadow_2_48"/>
</filter>
<filter id="filter1_ii_2_48" x="-8.7" y="496.794" width="533.773" height="140.047" filterUnits="userSpaceOnUse" color-interpolation-filters="sRGB">
<feFlood flood-opacity="0" result="BackgroundImageFix"/>
<feBlend mode="normal" in="SourceGraphic" in2="BackgroundImageFix" result="shape"/>
<feColorMatrix in="SourceAlpha" type="matrix" values="0 0 0 0 0 0 0 0 0 0 0 0 0 0 0 0 0 0 127 0" result="hardAlpha"/>
<feOffset dx="-10"/>
<feGaussianBlur stdDeviation="4.35"/>
<feComposite in2="hardAlpha" operator="arithmetic" k2="-1" k3="1"/>
<feColorMatrix type="matrix" values="0 0 0 0 0.00784314 0 0 0 0 0.0235294 0 0 0 0 0.0901961 0 0 0 0.4 0"/>
<feBlend mode="normal" in2="shape" result="effect1_innerShadow_2_48"/>
<feColorMatrix in="SourceAlpha" type="matrix" values="0 0 0 0 0 0 0 0 0 0 0 0 0 0 0 0 0 0 127 0" result="hardAlpha"/>
<feOffset dx="4" dy="7"/>
<feGaussianBlur stdDeviation="3.5"/>
<feComposite in2="hardAlpha" operator="arithmetic" k2="-1" k3="1"/>
<feColorMatrix type="matrix" values="0 0 0 0 0.580392 0 0 0 0 0.639216 0 0 0 0 0.721569 0 0 0 0.2 0"/>
<feBlend mode="normal" in2="effect1_innerShadow_2_48" result="effect2_innerShadow_2_48"/>
</filter>
<filter id="filter2_i_2_48" x="80.1725" y="146.491" width="270" height="42" filterUnits="userSpaceOnUse" color-interpolation-filters="sRGB">
<feFlood flood-opacity="0" result="BackgroundImageFix"/>
<feBlend mode="normal" in="SourceGraphic" in2="BackgroundImageFix" result="shape"/>
<feColorMatrix in="SourceAlpha" type="matrix" values="0 0 0 0 0 0 0 0 0 0 0 0 0 0 0 0 0 0 127 0" result="hardAlpha"/>
<feOffset dx="6" dy="6"/>
<feComposite in2="hardAlpha" operator="arithmetic" k2="-1" k3="1"/>
<feColorMatrix type="matrix" values="0 0 0 0 0.00784314 0 0 0 0 0.0235294 0 0 0 0 0.0901961 0 0 0 0.25 0"/>
<feBlend mode="normal" in2="shape" result="effect1_innerShadow_2_48"/>
</filter>
<filter id="filter3_i_2_48" x="80.1725" y="404.491" width="270" height="42" filterUnits="userSpaceOnUse" color-interpolation-filters="sRGB">
<feFlood flood-opacity="0" result="BackgroundImageFix"/>
<feBlend mode="normal" in="SourceGraphic" in2="BackgroundImageFix" result="shape"/>
<feColorMatrix in="SourceAlpha" type="matrix" values="0 0 0 0 0 0 0 0 0 0 0 0 0 0 0 0 0 0 127 0" result="hardAlpha"/>
<feOffset dx="6" dy="6"/>
<feComposite in2="hardAlpha" operator="arithmetic" k2="-1" k3="1"/>
<feColorMatrix type="matrix" values="0 0 0 0 0.00784314 0 0 0 0 0.0235294 0 0 0 0 0.0901961 0 0 0 0.25 0"/>
<feBlend mode="normal" in2="shape" result="effect1_innerShadow_2_48"/>
</filter>
<filter id="filter4_i_2_48" x="80.1725" y="232.491" width="316" height="42" filterUnits="userSpaceOnUse" color-interpolation-filters="sRGB">
<feFlood flood-opacity="0" result="BackgroundImageFix"/>
<feBlend mode="normal" in="SourceGraphic" in2="BackgroundImageFix" result="shape"/>
<feColorMatrix in="SourceAlpha" type="matrix" values="0 0 0 0 0 0 0 0 0 0 0 0 0 0 0 0 0 0 127 0" result="hardAlpha"/>
<feOffset dx="6" dy="6"/>
<feComposite in2="hardAlpha" operator="arithmetic" k2="-1" k3="1"/>
<feColorMatrix type="matrix" values="0 0 0 0 0.00784314 0 0 0 0 0.0235294 0 0 0 0 0.0901961 0 0 0 0.25 0"/>
<feBlend mode="normal" in2="shape" result="effect1_innerShadow_2_48"/>
</filter>
<filter id="filter5_i_2_48" x="80.1725" y="318.491" width="191" height="42" filterUnits="userSpaceOnUse" color-interpolation-filters="sRGB">
<feFlood flood-opacity="0" result="BackgroundImageFix"/>
<feBlend mode="normal" in="SourceGraphic" in2="BackgroundImageFix" result="shape"/>
<feColorMatrix in="SourceAlpha" type="matrix" values="0 0 0 0 0 0 0 0 0 0 0 0 0 0 0 0 0 0 127 0" result="hardAlpha"/>
<feOffset dx="6" dy="6"/>
<feComposite in2="hardAlpha" operator="arithmetic" k2="-1" k3="1"/>
<feColorMatrix type="matrix" values="0 0 0 0 0.00784314 0 0 0 0 0.0235294 0 0 0 0 0.0901961 0 0 0 0.25 0"/>
<feBlend mode="normal" in2="shape" result="effect1_innerShadow_2_48"/>
</filter>
</defs>
</svg>
